<svg width="136" height="139" viewBox="0 0 136 139" fill="none" xmlns="http://www.w3.org/2000/svg">
<g filter="url(#filter0_f_411_18)">
<ellipse cx="68" cy="69.5" rx="38" ry="37.5" fill="url(#paint0_linear_411_18)"/>
</g>
<path d="M43 33C43 32.4477 43.4477 32 44 32H92C92.5523 32 93 32.4477 93 33V106C93 106.552 92.5523 107 92 107H44C43.4477 107 43 106.552 43 106V33Z" fill="black"/>
<path d="M49.9993 55.9995C49.9993 55.4472 50.447 54.9995 50.9993 54.9995H63.9993C64.5516 54.9995 64.9993 55.4472 64.9993 55.9995V73.9995C64.9993 74.5517 64.5516 74.9995 63.9993 74.9995H54.4135C54.1483 74.9995 53.8939 75.1048 53.7064 75.2923L52.2922 76.7066C52.1046 76.8941 51.8503 76.9995 51.5851 76.9995H50.9993C50.447 76.9995 49.9993 76.5517 49.9993 75.9995V55.9995Z" fill="white"/>
<path d="M85.9995 55.9995C85.9995 55.4472 85.5518 54.9995 84.9995 54.9995H71.9995C71.4472 54.9995 70.9995 55.4472 70.9995 55.9995V73.9995C70.9995 74.5517 71.4472 74.9995 71.9995 74.9995H81.5853C81.8505 74.9995 82.1049 75.1048 82.2924 75.2923L83.7066 76.7066C83.8942 76.8941 84.1485 76.9995 84.4137 76.9995H84.9995C85.5518 76.9995 85.9995 76.5517 85.9995 75.9995V55.9995Z" fill="white"/>
<path d="M54.9998 61.0004C54.9998 60.4481 55.4475 60.0004 55.9998 60.0004H61.9998C62.552 60.0004 62.9998 60.4481 62.9998 61.0004V71.0004C62.9998 71.5526 62.552 72.0004 61.9998 72.0004H55.9998C55.4475 72.0004 54.9998 71.5526 54.9998 71.0004V61.0004Z" fill="black"/>
<path d="M56 61.5005C56 61.2244 56.2239 61.0005 56.5 61.0005V61.0005C56.7761 61.0005 57 61.2244 57 61.5005V61.5005C57 61.7767 56.7761 62.0005 56.5 62.0005V62.0005C56.2239 62.0005 56 61.7767 56 61.5005V61.5005Z" fill="white"/>
<path d="M56 63.499C56 63.2229 56.2239 62.999 56.5 62.999V62.999C56.7761 62.999 57 63.2229 57 63.499V65.499C57 65.7752 56.7761 65.999 56.5 65.999V65.999C56.2239 65.999 56 65.7752 56 65.499V63.499Z" fill="white"/>
<path d="M73 61.0004C73 60.4481 73.4477 60.0004 74 60.0004H80C80.5523 60.0004 81 60.4481 81 61.0004V71.0004C81 71.5526 80.5523 72.0004 80 72.0004H74C73.4477 72.0004 73 71.5526 73 71.0004V61.0004Z" fill="black"/>
<path fill-rule="evenodd" clip-rule="evenodd" d="M56.5012 80.4995C56.5012 80.2233 56.7251 79.9995 57.0012 79.9995H60.5012C60.6338 79.9995 60.761 80.0521 60.8548 80.1459L63.7083 82.9995H72.2941L75.1477 80.1459C75.2414 80.0521 75.3686 79.9995 75.5012 79.9995H79.0012C79.2774 79.9995 79.5012 80.2233 79.5012 80.4995C79.5012 80.7756 79.2774 80.9995 79.0012 80.9995H75.7083L72.8548 83.853C72.761 83.9468 72.6338 83.9995 72.5012 83.9995H63.5012C63.3686 83.9995 63.2414 83.9468 63.1477 83.853L60.2941 80.9995H57.0012C56.7251 80.9995 56.5012 80.7756 56.5012 80.4995Z" fill="white"/>
<path d="M49.9993 48.4991C49.9993 48.223 50.2231 47.9991 50.4993 47.9991H59.4993C59.7754 47.9991 59.9993 48.223 59.9993 48.4991V48.4991C59.9993 48.7753 59.7754 48.9991 59.4993 48.9991H50.4993C50.2231 48.9991 49.9993 48.7753 49.9993 48.4991V48.4991Z" fill="white"/>
<path d="M76.0002 48.4991C76.0002 48.223 76.2241 47.9991 76.5002 47.9991H85.5003C85.7764 47.9991 86.0003 48.223 86.0003 48.4991V48.4991C86.0003 48.7753 85.7764 48.9991 85.5003 48.9991H76.5002C76.2241 48.9991 76.0002 48.7753 76.0002 48.4991V48.4991Z" fill="white"/>
<path d="M73.9988 61.5005C73.9988 61.2244 74.2226 61.0005 74.4988 61.0005V61.0005C74.7749 61.0005 74.9988 61.2244 74.9988 61.5005V61.5005C74.9988 61.7767 74.7749 62.0005 74.4988 62.0005V62.0005C74.2226 62.0005 73.9988 61.7767 73.9988 61.5005V61.5005Z" fill="white"/>
<path d="M73.9988 63.499C73.9988 63.2229 74.2226 62.999 74.4988 62.999V62.999C74.7749 62.999 74.9988 63.2229 74.9988 63.499V65.499C74.9988 65.7752 74.7749 65.999 74.4988 65.999V65.999C74.2226 65.999 73.9988 65.7752 73.9988 65.499V63.499Z" fill="white"/>
<path d="M14.5455 6.09375C14.4858 5.88636 14.402 5.70312 14.294 5.54403C14.1861 5.3821 14.054 5.24574 13.8977 5.13494C13.7443 5.02131 13.5682 4.93466 13.3693 4.875C13.1733 4.81534 12.956 4.78551 12.7173 4.78551C12.2713 4.78551 11.8793 4.89631 11.5412 5.1179C11.206 5.33949 10.9446 5.66193 10.7571 6.08523C10.5696 6.50568 10.4759 7.01989 10.4759 7.62784C10.4759 8.2358 10.5682 8.75284 10.7528 9.17898C10.9375 9.60511 11.1989 9.9304 11.5369 10.1548C11.875 10.3764 12.2741 10.4872 12.7344 10.4872C13.152 10.4872 13.5085 10.4134 13.804 10.2656C14.1023 10.1151 14.3295 9.90341 14.4858 9.63068C14.6449 9.35795 14.7244 9.03551 14.7244 8.66335L15.0994 8.71875H12.8494V7.32955H16.5014V8.42898C16.5014 9.19602 16.3395 9.85511 16.0156 10.4062C15.6918 10.9545 15.2457 11.3778 14.6776 11.6761C14.1094 11.9716 13.4588 12.1193 12.7259 12.1193C11.9077 12.1193 11.1889 11.9389 10.5696 11.5781C9.95028 11.2145 9.46733 10.6989 9.12074 10.0312C8.77699 9.3608 8.60511 8.56534 8.60511 7.64489C8.60511 6.9375 8.70739 6.30682 8.91193 5.75284C9.11932 5.19602 9.40909 4.72443 9.78125 4.33807C10.1534 3.9517 10.5866 3.65767 11.081 3.45597C11.5753 3.25426 12.1108 3.15341 12.6875 3.15341C13.1818 3.15341 13.642 3.22585 14.0682 3.37074C14.4943 3.51278 14.8722 3.71449 15.2017 3.97585C15.5341 4.23722 15.8054 4.5483 16.0156 4.90909C16.2259 5.26705 16.3608 5.66193 16.4205 6.09375H14.5455ZM17.8874 12V3.27273H21.3306C21.9897 3.27273 22.5522 3.39062 23.0181 3.62642C23.4869 3.85937 23.8434 4.19034 24.0877 4.61932C24.3349 5.04545 24.4585 5.54687 24.4585 6.12358C24.4585 6.70312 24.3335 7.2017 24.0835 7.61932C23.8335 8.03409 23.4712 8.35227 22.9968 8.57386C22.5252 8.79545 21.9542 8.90625 21.2837 8.90625H18.9783V7.4233H20.9854C21.3377 7.4233 21.6303 7.375 21.8633 7.27841C22.0962 7.18182 22.2695 7.03693 22.3832 6.84375C22.4996 6.65057 22.5579 6.41051 22.5579 6.12358C22.5579 5.83381 22.4996 5.58949 22.3832 5.39062C22.2695 5.19176 22.0948 5.04119 21.859 4.93892C21.6261 4.83381 21.332 4.78125 20.9769 4.78125H19.7326V12H17.8874ZM22.6005 8.02841L24.7695 12H22.7326L20.6104 8.02841H22.6005ZM25.7624 12V3.27273H31.6431V4.79403H27.6076V6.87358H31.3406V8.39489H27.6076V10.4787H31.6602V12H25.7624ZM34.6143 12H32.6371L35.6499 3.27273H38.0277L41.0362 12H39.0589L36.8729 5.26705H36.8047L34.6143 12ZM34.4908 8.5696H39.1612V10.0099H34.4908V8.5696ZM40.6879 4.79403V3.27273H47.8555V4.79403H45.1836V12H43.3597V4.79403H40.6879ZM56.5476 5.78267C56.5135 5.43892 56.3672 5.17187 56.1087 4.98153C55.8501 4.79119 55.4993 4.69602 55.0561 4.69602C54.755 4.69602 54.5007 4.73864 54.2933 4.82386C54.0859 4.90625 53.9268 5.02131 53.8161 5.16903C53.7081 5.31676 53.6541 5.48438 53.6541 5.67188C53.6484 5.82812 53.6811 5.96449 53.7521 6.08097C53.826 6.19744 53.9268 6.2983 54.0547 6.38352C54.1825 6.46591 54.3303 6.53835 54.4979 6.60085C54.6655 6.66051 54.8445 6.71165 55.0348 6.75426L55.8189 6.94176C56.1996 7.02699 56.549 7.14062 56.8672 7.28267C57.1854 7.42472 57.4609 7.59943 57.6939 7.80682C57.9268 8.0142 58.1072 8.25852 58.2351 8.53977C58.3658 8.82102 58.4325 9.14347 58.4354 9.5071C58.4325 10.0412 58.2962 10.5043 58.0263 10.8963C57.7592 11.2855 57.3729 11.5881 56.8672 11.804C56.3643 12.017 55.7578 12.1236 55.0476 12.1236C54.343 12.1236 53.7294 12.0156 53.2067 11.7997C52.6868 11.5838 52.2805 11.2642 51.9879 10.8409C51.6982 10.4148 51.5462 9.88778 51.532 9.25994H53.3175C53.3374 9.55256 53.4212 9.79687 53.5689 9.9929C53.7195 10.1861 53.9197 10.3324 54.1697 10.4318C54.4226 10.5284 54.7081 10.5767 55.0263 10.5767C55.3388 10.5767 55.6101 10.5312 55.8402 10.4403C56.0732 10.3494 56.2536 10.223 56.3814 10.0611C56.5092 9.89915 56.5732 9.71307 56.5732 9.50284C56.5732 9.30682 56.5149 9.14205 56.3984 9.00852C56.2848 8.875 56.1172 8.76136 55.8956 8.66761C55.6768 8.57386 55.4084 8.48864 55.0902 8.41193L54.1399 8.1733C53.4041 7.99432 52.8232 7.71449 52.397 7.33381C51.9709 6.95312 51.7592 6.44034 51.7621 5.79545C51.7592 5.26705 51.8999 4.8054 52.1839 4.41051C52.4709 4.01562 52.8643 3.70739 53.3643 3.4858C53.8643 3.2642 54.4325 3.15341 55.0689 3.15341C55.7166 3.15341 56.282 3.2642 56.7649 3.4858C57.2507 3.70739 57.6286 4.01562 57.8984 4.41051C58.1683 4.8054 58.3075 5.26278 58.3161 5.78267H56.5476ZM61.641 12L59.1438 3.27273H61.1594L62.604 9.33665H62.6765L64.2702 3.27273H65.9961L67.5856 9.34943H67.6623L69.1069 3.27273H71.1225L68.6254 12H66.8271L65.1651 6.29403H65.0969L63.4393 12H61.641ZM72.7354 12H70.7582L73.771 3.27273H76.1488L79.1573 12H77.18L74.994 5.26705H74.9258L72.7354 12ZM72.6119 8.5696H77.2823V10.0099H72.6119V8.5696ZM80.2077 12V3.27273H83.6509C84.3129 3.27273 84.8768 3.39915 85.3427 3.65199C85.8086 3.90199 86.1637 4.25 86.408 4.69602C86.6552 5.1392 86.7788 5.65057 86.7788 6.23011C86.7788 6.80966 86.6538 7.32102 86.4038 7.7642C86.1538 8.20739 85.7915 8.55256 85.3171 8.79972C84.8455 9.04687 84.2745 9.17045 83.604 9.17045H81.4094V7.69176H83.3058C83.6609 7.69176 83.9535 7.63068 84.1836 7.50852C84.4165 7.38352 84.5898 7.21165 84.7035 6.9929C84.82 6.77131 84.8782 6.51705 84.8782 6.23011C84.8782 5.94034 84.82 5.6875 84.7035 5.47159C84.5898 5.25284 84.4165 5.08381 84.1836 4.96449C83.9506 4.84233 83.6552 4.78125 83.2972 4.78125H82.0529V12H80.2077ZM93.8484 12H90.7546V3.27273H93.8739C94.7518 3.27273 95.5075 3.44744 96.141 3.79688C96.7745 4.14347 97.2617 4.64205 97.6026 5.29261C97.9464 5.94318 98.1183 6.72159 98.1183 7.62784C98.1183 8.53693 97.9464 9.31818 97.6026 9.97159C97.2617 10.625 96.7717 11.1264 96.1325 11.4759C95.4961 11.8253 94.7347 12 93.8484 12ZM92.5998 10.419H93.7717C94.3171 10.419 94.7759 10.3224 95.1481 10.1293C95.5231 9.93324 95.8043 9.63068 95.9918 9.22159C96.1822 8.80966 96.2773 8.27841 96.2773 7.62784C96.2773 6.98295 96.1822 6.45597 95.9918 6.04688C95.8043 5.63778 95.5245 5.33665 95.1523 5.14347C94.7802 4.95028 94.3214 4.85369 93.7759 4.85369H92.5998V10.419ZM104.876 3.27273H106.721V8.94034C106.721 9.5767 106.569 10.1335 106.265 10.6108C105.964 11.0881 105.542 11.4602 104.999 11.7273C104.457 11.9915 103.825 12.1236 103.103 12.1236C102.379 12.1236 101.745 11.9915 101.202 11.7273C100.66 11.4602 100.238 11.0881 99.9368 10.6108C99.6357 10.1335 99.4851 9.5767 99.4851 8.94034V3.27273H101.33V8.78267C101.33 9.11506 101.403 9.41051 101.548 9.66903C101.695 9.92756 101.903 10.1307 102.17 10.2784C102.437 10.4261 102.748 10.5 103.103 10.5C103.461 10.5 103.772 10.4261 104.036 10.2784C104.303 10.1307 104.509 9.92756 104.654 9.66903C104.802 9.41051 104.876 9.11506 104.876 8.78267V3.27273ZM111.333 12H108.239V3.27273H111.358C112.236 3.27273 112.992 3.44744 113.625 3.79688C114.259 4.14347 114.746 4.64205 115.087 5.29261C115.431 5.94318 115.603 6.72159 115.603 7.62784C115.603 8.53693 115.431 9.31818 115.087 9.97159C114.746 10.625 114.256 11.1264 113.617 11.4759C112.98 11.8253 112.219 12 111.333 12ZM110.084 10.419H111.256C111.801 10.419 112.26 10.3224 112.632 10.1293C113.007 9.93324 113.289 9.63068 113.476 9.22159C113.667 8.80966 113.762 8.27841 113.762 7.62784C113.762 6.98295 113.667 6.45597 113.476 6.04688C113.289 5.63778 113.009 5.33665 112.637 5.14347C112.265 4.95028 111.806 4.85369 111.26 4.85369H110.084V10.419ZM116.969 12V3.27273H122.85V4.79403H118.815V6.87358H122.548V8.39489H118.815V10.4787H122.867V12H116.969ZM126.452 3.27273L126.286 9.38352H124.726L124.556 3.27273H126.452ZM125.506 12.1108C125.225 12.1108 124.983 12.0114 124.782 11.8125C124.58 11.6108 124.48 11.3693 124.483 11.0881C124.48 10.8097 124.58 10.571 124.782 10.3722C124.983 10.1733 125.225 10.0739 125.506 10.0739C125.776 10.0739 126.013 10.1733 126.218 10.3722C126.422 10.571 126.526 10.8097 126.529 11.0881C126.526 11.2756 126.476 11.4474 126.38 11.6037C126.286 11.7571 126.162 11.8807 126.009 11.9744C125.855 12.0653 125.688 12.1108 125.506 12.1108Z" fill="white"/>
<defs>
<filter id="filter0_f_411_18" x="0" y="2" width="136" height="135" filterUnits="userSpaceOnUse" color-interpolation-filters="sRGB">
<feFlood flood-opacity="0" result="BackgroundImageFix"/>
<feBlend mode="normal" in="SourceGraphic" in2="BackgroundImageFix" result="shape"/>
<feGaussianBlur stdDeviation="15" result="effect1_foregroundBlur_411_18"/>
</filter>
<linearGradient id="paint0_linear_411_18" x1="97.5556" y1="42.7812" x2="52.0975" y2="103.755" gradientUnits="userSpaceOnUse">
<stop stop-color="#00FF66"/>
<stop offset="1" stop-color="#005ECD"/>
</linearGradient>
</defs>
</svg>
